#!OML:ASF E:\motion texture\Top Level 1\Subject 1\Session 1\male.ASF
:FULLY-SPECIFIED
:DEGREES
625
root -26.0824 18.0156 5.47543 28.872 -82.395 -23.7943
lowerback -1.18862 -1.98272 1.28436
upperback -1.46846 -2.66366 1.76811
thorax -0.812397 -1.34456 1.07903
lowerneck -8.53095 -3.62516 -6.92875
upperneck -9.19578 -4.1425 11.2211
head -0.916855 -2.1165 4.45074
rclavicle 1.58624e-014 -3.97569e-016
rhumerus -7.69558 25.4862 -89.6184
rradius 94.4149
rwrist -21.4679
rhand -15.9176 -57.2242
rfingers 7.12502
rthumb 10.2796 -446.953
lclavicle 1.58624e-014 -3.97569e-016
lhumerus -32.1697 -26.5403 109.785
lradius 73.2983
lwrist 35.4358
lhand -9.84197 59.6178
lfingers 7.12502
lthumb 16.1358 -271.034
rfemur -21.4369 -7.10095 21.2001
rtibia 54.8814
rfoot -5.12402 -21.663
rtoes 11.7846
lfemur -13.6464 2.82357 -18.9467
ltibia 16.8947
lfoot -7.28757 -2.36063
ltoes -2.04533
626
root -26.2109 18.0217 5.49368 26.9667 -82.2703 -21.8929
lowerback -1.16574 -2.09587 1.05633
upperback -1.4638 -2.81189 1.71674
thorax -0.81065 -1.41627 1.1537
lowerneck -8.41392 -3.58845 -7.01814
upperneck -9.8046 -4.06671 11.376
head -1.11398 -2.09974 4.52874
rclavicle -1.37286e-015 1.5207e-014
rhumerus -8.67781 25.2722 -89.9345
rradius 94.0199
rwrist -21.1302
rhand -15.9885 -57.1058
rfingers 7.12502
rthumb 10.2112 -446.838
lclavicle -1.37286e-015 1.5207e-014
lhumerus -31.2402 -26.9604 109.901
lradius 73.0653
lwrist 34.2664
lhand -9.97069 59.3138
lfingers 7.12502
lthumb 16.0119 -271.328
rfemur -22.2741 -7.11047 20.892
rtibia 54.5608
rfoot -5.30291 -21.7285
rtoes 11.9397
lfemur -13.0216 2.73019 -19.1711
ltibia 16.6661
lfoot -7.50735 -2.55816
ltoes -1.677
627
root -26.3386 18.0268 5.51172 25.2442 -82.1667 -20.1665
lowerback -1.14232 -2.20308 0.835503
upperback -1.45892 -2.95246 1.66987
thorax -0.80837 -1.48428 1.229
lowerneck -8.29576 -3.5433 -7.10339
upperneck -10.4241 -3.98021 11.5194
head -1.31612 -2.07856 4.60362
rclavicle 4.43228e-015 -1.03368e-014
rhumerus -9.64866 25.0298 -90.2612
rradius 93.622
rwrist -20.9146
rhand -16.0271 -56.9301
rfingers 7.12502
rthumb 10.174 -446.664
lclavicle 4.43228e-015 -1.03368e-014
lhumerus -30.3094 -27.3889 109.986
lradius 72.9347
lwrist 33.0068
lhand -10.1024 58.9847
lfingers 7.12502
lthumb 15.885 -271.647
rfemur -23.0923 -7.08452 20.5825
rtibia 54.1222
rfoot -5.4756 -21.7607
rtoes 12.0387
lfemur -12.4145 2.64022 -19.3878
ltibia 16.4506
lfoot -7.72805 -2.72452
ltoes -1.33052
628
root -26.4655 18.031 5.52953 23.7106 -82.0874 -18.6222
lowerback -1.1208 -2.30314 0.625597
upperback -1.45291 -3.08382 1.62789
thorax -0.80353 -1.54783 1.30314
lowerneck -8.17023 -3.48844 -7.18644
upperneck -11.0577 -3.88126 11.6552
head -1.52534 -2.05228 4.67711
rclavicle -2.44754e-015 1.97791e-014
rhumerus -10.5958 24.7538 -90.5927
rradius 93.2287
rwrist -20.8205
rhand -16.0317 -56.7026
rfingers 7.12502
rthumb 10.1695 -446.437
lclavicle -2.44754e-015 1.97791e-014
lhumerus -29.3763 -27.8198 110.036
lradius 72.903
lwrist 31.6534
lhand -10.2368 58.6308
lfingers 7.12502
lthumb 15.7556 -271.99
rfemur -23.8902 -7.02146 20.2766
rtibia 53.5686
rfoot -5.62773 -21.7596
rtoes 12.0425
lfemur -11.8227 2.55586 -19.5927
ltibia 16.2458
lfoot -7.94857 -2.85932
ltoes -1.00624
629
root -26.5919 18.0343 5.54723 22.3157 -82.0318 -17.2105
lowerback -1.09981 -2.39664 0.42593
upperback -1.44689 -3.20668 1.58978
thorax -0.798177 -1.60728 1.37552
lowerneck -8.04321 -3.42536 -7.26507
upperneck -11.6966 -3.77239 11.7795
head -1.7382 -2.02175 4.74728
rclavicle -1.36975e-015 9.54166e-015
rhumerus -11.5135 24.4385 -90.9235
rradius 92.8492
rwrist -20.8436
rhand -16.0028 -56.4282
rfingers 7.12502
rthumb 10.1975 -446.161
lclavicle -1.36975e-015 9.54166e-015
lhumerus -28.4427 -28.2463 110.048
lradius 72.968
lwrist 30.2063
lhand -10.3689 58.2754
lfingers 7.12502
lthumb 15.6283 -272.336
rfemur -24.6604 -6.92738 19.9694
rtibia 52.8967
rfoot -5.75322 -21.7252
rtoes 11.985
lfemur -11.2448 2.475 -19.7925
ltibia 16.0532
lfoot -8.17166 -2.96415
ltoes -0.706883
630
root -26.7177 18.0368 5.56474 21.0508 -82.0009 -15.9228
lowerback -1.0788 -2.48301 0.23609
upperback -1.44148 -3.32024 1.55677
thorax -0.793282 -1.66222 1.44768
lowerneck -7.91395 -3.35399 -7.34118
upperneck -12.3403 -3.65351 11.8933
head -1.95463 -1.98683 4.81474
rclavicle -2.38666e-014 5.76476e-015
rhumerus -12.3922 24.0836 -91.2447
rradius 92.4919
rwrist -20.9856
rhand -15.9434 -56.1193
rfingers 7.12502
rthumb 10.2547 -445.849
lclavicle -2.38666e-014 5.76476e-015
lhumerus -27.5069 -28.6612 110.02
lradius 73.1257
lwrist 28.672
lhand -10.502 57.9164
lfingers 7.12502
lthumb 15.5002 -272.685
rfemur -25.4033 -6.80358 19.6635
rtibia 52.1125
rfoot -5.84754 -21.6525
rtoes 11.8453
lfemur -10.6818 2.39895 -19.9853
ltibia 15.8738
lfoot -8.39712 -3.0395
ltoes -0.429704
631
root -26.8431 18.0383 5.58206 19.9083 -81.9949 -14.7513
lowerback -1.05912 -2.56235 0.0572025
upperback -1.43745 -3.42466 1.52927
thorax -0.789009 -1.71271 1.51938
lowerneck -7.78133 -3.27406 -7.41475
upperneck -12.9866 -3.5245 11.9964
head -2.17432 -1.94734 4.87937
rclavicle 4.9634e-015 -1.14301e-014
rhumerus -13.2241 23.6892 -91.5503
rradius 92.1628
rwrist -21.2425
rhand -15.8545 -55.7826
rfingers 7.12502
rthumb 10.3405 -445.508
lclavicle 4.9634e-015 -1.14301e-014
lhumerus -26.5678 -29.0582 109.951
lradius 73.3717
lwrist 27.0558
lhand -10.6347 57.5678
lfingers 7.12502
lthumb 15.3724 -273.024
rfemur -26.1183 -6.65269 19.3614
rtibia 51.2219
rfoot -5.89401 -21.5306
rtoes 11.6424
lfemur -10.1344 2.32869 -20.1702
ltibia 15.7085
lfoot -8.6249 -3.08641
ltoes -0.172778
632
root -26.9681 18.039 5.59915 18.8617 -82.011 -13.6684
lowerback -1.04227 -2.63517 -0.112039
upperback -1.43459 -3.5206 1.50725
thorax -0.784305 -1.75909 1.59123
lowerneck -7.6492 -3.18663 -7.4835
upperneck -13.6315 -3.38724 12.0863
head -2.39551 -1.90398 4.93968
rclavicle -5.3734e-015 -2.05742e-014
rhumerus -14.0017 23.2539 -91.8331
rradius 91.8675
rwrist -21.6084
rhand -15.738 -55.4239
rfingers 7.12502
rthumb 10.4529 -445.144
lclavicle -5.3734e-015 -2.05742e-014
lhumerus -25.6236 -29.4329 109.838
lradius 73.7021
lwrist 25.37
lhand -10.7707 57.2355
lfingers 7.12502
lthumb 15.2413 -273.346
rfemur -26.8046 -6.48074 19.0627
rtibia 50.2311
rfoot -5.8777 -21.3658
rtoes 11.3316
lfemur -9.60484 2.26342 -20.3493
ltibia 15.5597
lfoot -8.85543 -3.1078
ltoes 0.0599545
633
root -27.0929 18.0388 5.61601 17.8996 -82.0492 -12.6629
lowerback -1.02753 -2.70154 -0.271163
upperback -1.4347 -3.6081 1.49022
thorax -0.781564 -1.80135 1.66254
lowerneck -7.51519 -3.09145 -7.54603
upperneck -14.273 -3.24174 12.1619
head -2.6181 -1.85672 4.99511
rclavicle -1.585e-014 1.93815e-014
rhumerus -14.7225 22.7772 -92.09
rradius 91.6112
rwrist -22.0757
rhand -15.5904 -55.0592
rfingers 7.12502
rthumb 10.5953 -444.772
lclavicle -1.585e-014 1.93815e-014
lhumerus -24.6766 -29.7771 109.682
lradius 74.1138
lwrist 23.6308
lhand -10.9075 56.9279
lfingers 7.12502
lthumb 15.1096 -273.644
rfemur -27.4622 -6.2901 18.7687
rtibia 49.1501
rfoot -5.80674 -21.1575
rtoes 10.9392
lfemur -9.09421 2.20436 -20.523
ltibia 15.4296
lfoot -9.08935 -3.10578
ltoes 0.2694
634
root -27.2176 18.0379 5.63265 17.0052 -82.107 -11.719
lowerback -1.01617 -2.76212 -0.420871
upperback -1.43769 -3.68804 1.47824
thorax -0.779976 -1.83993 1.73373
lowerneck -7.37969 -2.98865 -7.60259
upperneck -14.9086 -3.08831 12.2238
head -2.84131 -1.80554 5.04566
rclavicle 1.46107e-014 -1.2921e-015
rhumerus -15.3822 22.2611 -92.3161
rradius 91.397
rwrist -22.633
rhand -15.4095 -54.6929
rfingers 7.12502
rthumb 10.7698 -444.397
lclavicle 1.46107e-014 -1.2921e-015
lhumerus -23.7243 -30.0872 109.482
lradius 74.6005
lwrist 21.861
lhand -11.0457 56.6514
lfingers 7.12502
lthumb 14.9764 -273.91
rfemur -28.0884 -6.08637 18.4802
rtibia 47.9888
rfoot -5.68646 -20.9078
rtoes 10.4773
lfemur -8.60076 2.15159 -20.6921
ltibia 15.3182
lfoot -9.32664 -3.08411
ltoes 0.448151
635
root -27.3423 18.0361 5.64892 16.1811 -82.1848 -10.8381
lowerback -1.00816 -2.81632 -0.562151
upperback -1.44419 -3.7596 1.47211
thorax -0.780199 -1.87438 1.80617
lowerneck -7.24489 -2.87897 -7.65545
upperneck -15.5346 -2.9278 12.2739
head -3.06352 -1.75059 5.09209
rclavicle -1.19768e-014 1.68967e-015
rhumerus -15.9788 21.7062 -92.5077
rradius 91.2283
rwrist -23.2653
rhand -15.2217 -54.3372
rfingers 7.12502
rthumb 10.9509 -444.032
lclavicle -1.19768e-014 1.68967e-015
lhumerus -22.7674 -30.3575 109.24
lradius 75.1592
lwrist 20.0821
lhand -11.1846 56.4028
lfingers 7.12502
lthumb 14.8427 -274.149
rfemur -28.6872 -5.86956 18.2016
rtibia 46.7611
rfoot -5.51829 -20.6268
rtoes 9.94628
lfemur -8.12813 2.10673 -20.854
ltibia 15.229
lfoot -9.56714 -3.04378
ltoes 0.597195
636
root -27.4671 18.0337 5.66484 15.4112 -82.2804 -10.0054
lowerback -1.00439 -2.86502 -0.694985
upperback -1.45428 -3.82396 1.47096
thorax -0.781882 -1.9053 1.87892
lowerneck -7.1097 -2.76257 -7.69967
upperneck -16.1499 -2.76109 12.3083
head -3.28472 -1.69235 5.13225
rclavicle -1.96579e-014 7.05686e-015
rhumerus -16.5116 21.1166 -92.6631
rradius 91.107
rwrist -23.9563
rhand -15.0089 -54.0243
rfingers 7.12502
rthumb 11.1562 -443.708
lclavicle -1.96579e-014 7.05686e-015
lhumerus -21.8074 -30.5842 108.958
lradius 75.787
lwrist 18.3176
lhand -11.3229 56.1853
lfingers 7.12502
lthumb 14.7094 -274.357
rfemur -29.2562 -5.64528 17.9335
rtibia 45.4774
rfoot -5.30505 -20.319
rtoes 9.35459
lfemur -7.67457 2.06958 -21.0106
ltibia 15.1622
lfoot -9.81168 -2.98786
ltoes 0.716295
